HIERARCHY
ROOT mixamorig:Hips
{
	OFFSET 0.000000 201.639420 0.000000
	CHANNELS 6 Xposition Yposition Zposition Xrotation Yrotation Zrotation
	JOINT mixamorig:Spine
	{
		OFFSET 0.006200 19.524994 -2.481800
		CHANNELS 3 Xrotation Yrotation Zrotation
		JOINT mixamorig:Spine1
		{
			OFFSET -0.000900 22.835007 -2.825400
			CHANNELS 3 Xrotation Yrotation Zrotation
			JOINT mixamorig:Spine2
			{
				OFFSET -0.020600 26.552490 -3.193300
				CHANNELS 3 Xrotation Yrotation Zrotation
				JOINT mixamorig:Neck
				{
					OFFSET -0.060000 30.701813 1.352200
					CHANNELS 3 Xrotation Yrotation Zrotation
					JOINT mixamorig:Head
					{
						OFFSET -0.087200 22.547607 3.670900
						CHANNELS 3 Xrotation Yrotation Zrotation
						JOINT mixamorig:HeadTop_End
						{
							OFFSET -0.830600 40.355194 7.893500
							CHANNELS 3 Xrotation Yrotation Zrotation
							End Site
							{
								OFFSET 0.000000 30.592346 0.000000
							}
						}
						JOINT mixamorig:RightEye
						{
							OFFSET -6.302100 18.118591 16.197100
							CHANNELS 3 Xrotation Yrotation Zrotation
							End Site
							{
								OFFSET 0.000000 30.592346 0.000000
							}
						}
						JOINT mixamorig:LeftEye
						{
							OFFSET 6.741500 18.382690 16.401899
							CHANNELS 3 Xrotation Yrotation Zrotation
							End Site
							{
								OFFSET 0.000000 30.592346 0.000000
							}
						}
					}
				}
				JOINT mixamorig:LeftShoulder
				{
					OFFSET 11.924900 18.230499 1.425400
					CHANNELS 3 Xrotation Yrotation Zrotation
					JOINT mixamorig:LeftArm
					{
						OFFSET 25.435989 -0.697632 -5.229300
						CHANNELS 3 Xrotation Yrotation Zrotation
						JOINT mixamorig:LeftForeArm
						{
							OFFSET 54.684776 0.000000 0.000000
							CHANNELS 3 Xrotation Yrotation Zrotation
							JOINT mixamorig:LeftHand
							{
								OFFSET 55.098175 0.000000 0.000000
								CHANNELS 3 Xrotation Yrotation Zrotation
								JOINT mixamorig:LeftHandMiddle1
								{
									OFFSET 23.369751 0.000000 0.000000
									CHANNELS 3 Xrotation Yrotation Zrotation
									JOINT mixamorig:LeftHandMiddle2
									{
										OFFSET 6.378677 0.000000 0.000000
										CHANNELS 3 Xrotation Yrotation Zrotation
										JOINT mixamorig:LeftHandMiddle3
										{
											OFFSET 6.148331 0.000000 0.000000
											CHANNELS 3 Xrotation Yrotation Zrotation
											JOINT mixamorig:LeftHandMiddle4
											{
												OFFSET 6.582504 0.000000 0.000000
												CHANNELS 3 Xrotation Yrotation Zrotation
												End Site
												{
													OFFSET -1.168900 6.395691 1.028606
												}
											}
										}
									}
								}
								JOINT mixamorig:LeftHandThumb1
								{
									OFFSET 7.235672 -3.848206 5.434273
									CHANNELS 3 Xrotation Yrotation Zrotation
									JOINT mixamorig:LeftHandThumb2
									{
										OFFSET 6.568451 -3.792297 3.792300
										CHANNELS 3 Xrotation Yrotation Zrotation
										JOINT mixamorig:LeftHandThumb3
										{
											OFFSET 6.063080 -3.500519 3.500518
											CHANNELS 3 Xrotation Yrotation Zrotation
											JOINT mixamorig:LeftHandThumb4
											{
												OFFSET 4.793182 -2.767334 2.767349
												CHANNELS 3 Xrotation Yrotation Zrotation
												End Site
												{
													OFFSET 0.101639 6.054260 1.275483
												}
											}
										}
									}
								}
								JOINT mixamorig:LeftHandIndex1
								{
									OFFSET 23.101074 -0.309540 4.992809
									CHANNELS 3 Xrotation Yrotation Zrotation
									JOINT mixamorig:LeftHandIndex2
									{
										OFFSET 6.226883 0.000000 0.000000
										CHANNELS 3 Xrotation Yrotation Zrotation
										JOINT mixamorig:LeftHandIndex3
										{
											OFFSET 6.094330 0.000000 0.000000
											CHANNELS 3 Xrotation Yrotation Zrotation
											JOINT mixamorig:LeftHandIndex4
											{
												OFFSET 5.482605 0.000000 0.000000
												CHANNELS 3 Xrotation Yrotation Zrotation
												End Site
												{
													OFFSET -1.427902 5.233032 0.797164
												}
											}
										}
									}
								}
								JOINT mixamorig:LeftHandRing1
								{
									OFFSET 22.299240 0.021149 -3.964172
									CHANNELS 3 Xrotation Yrotation Zrotation
									JOINT mixamorig:LeftHandRing2
									{
										OFFSET 6.321869 0.000000 0.000000
										CHANNELS 3 Xrotation Yrotation Zrotation
										JOINT mixamorig:LeftHandRing3
										{
											OFFSET 5.899796 0.000000 0.000000
											CHANNELS 3 Xrotation Yrotation Zrotation
											JOINT mixamorig:LeftHandRing4
											{
												OFFSET 6.517899 0.000000 0.000000
												CHANNELS 3 Xrotation Yrotation Zrotation
												End Site
												{
													OFFSET -1.637299 6.232208 0.980890
												}
											}
										}
									}
								}
								JOINT mixamorig:LeftHandPinky1
								{
									OFFSET 20.463791 -0.302338 -8.562233
									CHANNELS 3 Xrotation Yrotation Zrotation
									JOINT mixamorig:LeftHandPinky2
									{
										OFFSET 6.908646 0.000000 0.000000
										CHANNELS 3 Xrotation Yrotation Zrotation
										JOINT mixamorig:LeftHandPinky3
										{
											OFFSET 4.622849 0.000000 0.000000
											CHANNELS 3 Xrotation Yrotation Zrotation
											JOINT mixamorig:LeftHandPinky4
											{
												OFFSET 5.216080 0.000000 0.000000
												CHANNELS 3 Xrotation Yrotation Zrotation
												End Site
												{
													OFFSET -0.606308 5.116241 0.814926
												}
											}
										}
									}
								}
							}
						}
					}
				}
				JOINT mixamorig:RightShoulder
				{
					OFFSET -12.001300 18.284088 1.348900
					CHANNELS 3 Xrotation Yrotation Zrotation
					JOINT mixamorig:RightArm
					{
						OFFSET -25.308500 -0.751312 -5.164599
						CHANNELS 3 Xrotation Yrotation Zrotation
						JOINT mixamorig:RightForeArm
						{
							OFFSET -54.684429 0.000000 0.000000
							CHANNELS 3 Xrotation Yrotation Zrotation
							JOINT mixamorig:RightHand
							{
								OFFSET -55.150291 0.000000 0.000000
								CHANNELS 3 Xrotation Yrotation Zrotation
								JOINT mixamorig:RightHandMiddle1
								{
									OFFSET -23.317566 0.000000 0.000000
									CHANNELS 3 Xrotation Yrotation Zrotation
									JOINT mixamorig:RightHandMiddle2
									{
										OFFSET -6.378403 0.000000 0.000000
										CHANNELS 3 Xrotation Yrotation Zrotation
										JOINT mixamorig:RightHandMiddle3
										{
											OFFSET -6.148193 0.000000 0.000000
											CHANNELS 3 Xrotation Yrotation Zrotation
											JOINT mixamorig:RightHandMiddle4
											{
												OFFSET -6.583389 0.000000 0.000000
												CHANNELS 3 Xrotation Yrotation Zrotation
												End Site
												{
													OFFSET 1.171692 6.395905 1.029786
												}
											}
										}
									}
								}
								JOINT mixamorig:RightHandThumb1
								{
									OFFSET -7.190521 -3.860474 5.435846
									CHANNELS 3 Xrotation Yrotation Zrotation
									JOINT mixamorig:RightHandThumb2
									{
										OFFSET -6.567429 -3.791718 3.791708
										CHANNELS 3 Xrotation Yrotation Zrotation
										JOINT mixamorig:RightHandThumb3
										{
											OFFSET -6.062469 -3.500153 3.500166
											CHANNELS 3 Xrotation Yrotation Zrotation
											JOINT mixamorig:RightHandThumb4
											{
												OFFSET -4.792618 -2.767029 2.767022
												CHANNELS 3 Xrotation Yrotation Zrotation
												End Site
												{
													OFFSET -0.100327 6.053253 1.276754
												}
											}
										}
									}
								}
								JOINT mixamorig:RightHandIndex1
								{
									OFFSET -23.048981 -0.310791 4.992554
									CHANNELS 3 Xrotation Yrotation Zrotation
									JOINT mixamorig:RightHandIndex2
									{
										OFFSET -6.227539 0.000000 0.000000
										CHANNELS 3 Xrotation Yrotation Zrotation
										JOINT mixamorig:RightHandIndex3
										{
											OFFSET -6.095047 0.000000 0.000000
											CHANNELS 3 Xrotation Yrotation Zrotation
											JOINT mixamorig:RightHandIndex4
											{
												OFFSET -5.484772 0.000000 0.000000
												CHANNELS 3 Xrotation Yrotation Zrotation
												End Site
												{
													OFFSET 1.420593 5.237305 0.797056
												}
											}
										}
									}
								}
								JOINT mixamorig:RightHandRing1
								{
									OFFSET -22.246323 0.020569 -3.963762
									CHANNELS 3 Xrotation Yrotation Zrotation
									JOINT mixamorig:RightHandRing2
									{
										OFFSET -6.322128 0.000000 0.000000
										CHANNELS 3 Xrotation Yrotation Zrotation
										JOINT mixamorig:RightHandRing3
										{
											OFFSET -5.900024 0.000000 0.000000
											CHANNELS 3 Xrotation Yrotation Zrotation
											JOINT mixamorig:RightHandRing4
											{
												OFFSET -6.518356 0.000000 0.000000
												CHANNELS 3 Xrotation Yrotation Zrotation
												End Site
												{
													OFFSET 1.636398 6.232697 0.982186
												}
											}
										}
									}
								}
								JOINT mixamorig:RightHandPinky1
								{
									OFFSET -20.411011 -0.303314 -8.561701
									CHANNELS 3 Xrotation Yrotation Zrotation
									JOINT mixamorig:RightHandPinky2
									{
										OFFSET -6.907349 0.000000 0.000000
										CHANNELS 3 Xrotation Yrotation Zrotation
										JOINT mixamorig:RightHandPinky3
										{
											OFFSET -4.623840 0.000000 0.000000
											CHANNELS 3 Xrotation Yrotation Zrotation
											JOINT mixamorig:RightHandPinky4
											{
												OFFSET -5.218353 0.000000 0.000000
												CHANNELS 3 Xrotation Yrotation Zrotation
												End Site
												{
													OFFSET 0.602097 5.118835 0.816273
												}
											}
										}
									}
								}
							}
						}
					}
				}
			}
		}
	}
	JOINT mixamorig:LeftUpLeg
	{
		OFFSET 18.168400 -13.561905 -0.039000
		CHANNELS 3 Xrotation Yrotation Zrotation
		JOINT mixamorig:LeftLeg
		{
			OFFSET 0.577358 -80.825211 -3.695000
			CHANNELS 3 Xrotation Yrotation Zrotation
			JOINT mixamorig:LeftFoot
			{
				OFFSET -0.577356 -83.370262 -6.520700
				CHANNELS 3 Xrotation Yrotation Zrotation
				JOINT mixamorig:LeftToeBase
				{
					OFFSET 0.750401 -20.798306 25.135401
					CHANNELS 3 Xrotation Yrotation Zrotation
					JOINT mixamorig:LeftToe_End
					{
						OFFSET -0.000500 0.001200 19.917799
						CHANNELS 3 Xrotation Yrotation Zrotation
						End Site
						{
							OFFSET 0.000000 19.917805 0.000000
						}
					}
				}
			}
		}
	}
	JOINT mixamorig:RightUpLeg
	{
		OFFSET -18.162500 -13.585098 -0.041000
		CHANNELS 3 Xrotation Yrotation Zrotation
		JOINT mixamorig:RightLeg
		{
			OFFSET -0.595024 -80.945297 -3.631900
			CHANNELS 3 Xrotation Yrotation Zrotation
			JOINT mixamorig:RightFoot
			{
				OFFSET 0.595024 -83.218193 -6.561200
				CHANNELS 3 Xrotation Yrotation Zrotation
				JOINT mixamorig:RightToeBase
				{
					OFFSET -0.753601 -20.807106 25.115000
					CHANNELS 3 Xrotation Yrotation Zrotation
					JOINT mixamorig:RightToe_End
					{
						OFFSET 0.000299 0.001700 19.918200
						CHANNELS 3 Xrotation Yrotation Zrotation
						End Site
						{
							OFFSET 0.000000 19.918203 0.000000
						}
					}
				}
			}
		}
	}
}
MOTION
Frames: 4
Frame Time: 0.033333
0.374563 200.312576 -0.375381 -3.753456 -5.224848 -3.507154 3.302712 1.541872 2.483627 1.151563 0.341256 1.563088 1.124399 0.369601 1.558065 5.626308 -0.076130 0.454683 -7.563349 1.377076 -0.080248 -0.000000 -0.000000 -0.000000 -0.000000 -0.000000 -0.000000 -0.000000 -0.000000 -0.000000 1.046817 -17.441243 -12.316048 3.916271 -19.989261 -69.765232 0.000003 -1.459369 0.000008 -33.230411 -1.364809 -6.186618 -0.076314 2.665776 -15.696840 0.268783 1.755798 -17.405525 0.300524 1.853977 -18.413348 -0.000000 -0.000001 -0.000001 -0.663006 2.160318 4.832492 11.845338 25.425980 17.060301 -13.814331 3.531929 9.046586 0.000001 -0.000001 -0.000002 0.019858 -0.969580 -7.593528 0.267778 1.752583 -17.372578 0.057676 0.820915 -8.037617 -0.000000 0.000001 0.000001 0.136904 3.641778 -21.133531 0.386300 2.093953 -20.903099 0.282657 1.799430 -17.852706 -0.000000 -0.000001 -0.000003 0.917889 5.560942 -27.127230 0.268796 1.755854 -17.405940 0.241810 1.667380 -16.502645 -0.000002 -0.000000 -0.000002 1.209146 15.345164 14.705937 13.158867 27.555121 58.785171 0.000009 6.693740 -0.000004 -20.179107 -0.514098 6.782816 -0.136230 -2.205103 14.998897 0.214446 -1.398356 17.436865 0.239774 -1.476523 18.446275 0.000004 -0.000002 0.000001 -1.665247 -0.174480 -4.219044 12.710953 -29.825339 -16.130959 -15.549423 -3.559387 -12.707135 0.000000 0.000001 -0.000001 0.037229 1.273353 6.824646 0.213729 -1.396023 17.407031 0.046026 -0.653848 8.053219 -0.000001 -0.000000 -0.000002 0.030605 -3.075768 20.451036 0.308449 -1.668287 20.948518 0.225826 -1.434035 17.897105 -0.000002 -0.000001 0.000003 0.756727 -4.881335 26.474353 0.214454 -1.398381 17.437251 0.193011 -1.328182 16.535825 0.000000 0.000000 0.000002 -13.008429 14.262760 10.836326 13.096396 2.098444 4.210343 2.619556 0.415527 -7.303449 -4.940035 -0.000006 -0.000000 0.000000 -0.000001 -0.000000 -0.244062 -10.400793 3.110721 6.110660 -9.762786 -3.279716 -1.644975 -1.557815 2.850733 -7.282878 -0.000005 -0.000000 0.000001 0.000002 -0.000000 
0.403351 200.295532 -0.415208 -3.798100 -5.521932 -3.578217 3.302627 1.541738 2.486843 1.151563 0.341255 1.563088 1.124399 0.369602 1.558065 5.658002 -0.073427 0.433888 -7.562017 1.396771 -0.134893 -0.000000 -0.000000 -0.000000 -0.000000 -0.000000 -0.000000 -0.000000 -0.000000 -0.000000 1.049204 -17.430824 -12.315333 3.861912 -20.202545 -69.781324 0.000000 -1.523118 0.000003 -33.149548 -1.438194 -6.183258 -0.094901 2.594726 -15.647825 0.268341 1.754382 -17.391016 0.300071 1.852614 -18.399288 -0.000000 -0.000002 -0.000002 -0.802506 2.237497 4.968525 11.855454 25.426393 17.027950 -13.814337 3.531925 9.046603 0.000002 0.000002 0.000001 0.044156 -0.951273 -7.556535 0.267772 1.752582 -17.372566 0.057677 0.820913 -8.037633 -0.000001 -0.000000 -0.000003 0.130831 3.627169 -21.159277 0.386303 2.093949 -20.903106 0.282656 1.799431 -17.852707 -0.000001 -0.000001 0.000006 0.906107 5.538019 -27.130995 0.268798 1.755851 -17.405977 0.241810 1.667384 -16.502640 -0.000001 -0.000001 -0.000002 1.206564 15.367489 14.694095 13.125055 27.554848 58.770752 0.000003 6.622049 -0.000013 -20.182837 -0.523834 6.785149 -0.135433 -2.165791 14.534644 0.201548 -1.356609 16.900299 0.236569 -1.466894 18.321684 0.000001 -0.000001 0.000007 -1.413001 0.635813 -2.930326 11.971229 -29.040185 -17.421504 -14.788299 -9.187050 -14.782838 -0.000002 0.000003 0.000001 0.104993 1.310483 6.427136 0.200378 -1.352747 16.850809 0.043785 -0.637810 7.854456 -0.000003 0.000000 0.000001 0.033621 -3.072512 20.193210 0.307453 -1.665702 20.914599 0.225024 -1.431561 17.865046 -0.000003 0.000000 0.000007 0.776737 -4.930047 26.118698 0.214825 -1.399543 17.452354 0.193352 -1.329350 16.550880 0.000001 0.000000 -0.000002 -13.058599 14.266617 10.972803 13.323470 2.366771 4.154649 2.459851 0.414721 -7.278368 -4.940030 0.000004 -0.000002 -0.000001 -0.000000 -0.000000 -0.259155 -10.400311 3.213278 6.151854 -9.062175 -3.372884 -1.605382 -1.972176 2.854526 -7.282874 0.000005 0.000000 -0.000000 -0.000002 -0.000000 
0.427149 200.270569 -0.439950 -3.848216 -5.839696 -3.650487 3.302559 1.541551 2.489344 1.151563 0.341256 1.563088 1.124399 0.369603 1.558064 5.693595 -0.068302 0.415616 -7.559567 1.446651 -0.179899 -0.000000 0.000000 0.000000 -0.000000 0.000000 0.000000 -0.000000 0.000000 0.000000 1.050918 -17.423338 -12.314826 3.808592 -20.203682 -69.807928 0.000011 -1.531675 -0.000010 -33.160456 -1.493182 -6.210406 -0.107195 2.551896 -15.663087 0.268258 1.754140 -17.388492 0.299990 1.852375 -18.396874 0.000002 -0.000001 -0.000001 -0.893347 2.266911 5.044466 11.863823 25.426747 17.001044 -13.814338 3.531925 9.046601 0.000000 0.000000 -0.000002 0.045236 -0.953518 -7.562251 0.267775 1.752582 -17.372596 0.057672 0.820912 -8.037638 -0.000001 -0.000000 -0.000002 0.133485 3.636343 -21.212324 0.386302 2.093952 -20.903123 0.282660 1.799431 -17.852711 -0.000001 -0.000001 0.000003 0.905354 5.536013 -27.157570 0.268798 1.755850 -17.405989 0.241812 1.667386 -16.502633 -0.000001 -0.000001 -0.000001 1.199731 15.377514 14.710617 13.152616 27.622916 58.680505 0.000011 6.503553 -0.000014 -20.198239 -0.604041 6.887976 -0.135637 -2.147136 14.342998 0.184915 -1.300611 16.182882 0.232667 -1.455052 18.168455 0.000002 0.000002 0.000006 -0.884025 2.002773 -1.334098 11.096503 -28.015851 -18.976149 -13.874454 -15.462157 -16.025868 0.000004 0.000002 -0.000000 0.156861 1.325199 6.366510 0.185482 -1.302550 16.207624 0.042815 -0.630694 7.766192 0.000001 0.000001 0.000001 0.051662 -3.118617 20.120323 0.307814 -1.666627 20.926791 0.225362 -1.432608 17.878579 0.000001 -0.000002 0.000002 0.785075 -4.942806 26.198367 0.216573 -1.405089 17.523549 0.195020 -1.334910 16.622023 -0.000001 0.000000 -0.000000 -13.109438 14.274674 11.118674 13.578816 2.650226 4.095489 2.275011 0.413689 -7.262023 -4.940033 -0.000006 0.000003 0.000000 -0.000001 -0.000000 -0.303346 -10.392779 3.306459 6.268691 -8.357414 -3.458080 -1.605781 -2.378528 2.859585 -7.287776 0.000002 -0.000001 -0.000000 -0.000002 -0.000000 
0.446982 200.239487 -0.451006 -3.903203 -6.176224 -3.726516 3.302486 1.541333 2.496925 1.151564 0.344952 1.563089 1.124399 0.369602 1.564418 5.730483 -0.065322 0.401213 -7.556040 1.513080 -0.218141 -0.000000 -0.000000 -0.000000 -0.000000 -0.000000 -0.000000 -0.000000 -0.000000 -0.000000 1.053012 -17.414185 -12.314198 3.768654 -20.016600 -69.831581 -0.000004 -1.492138 0.000003 -33.243012 -1.509789 -6.257772 -0.108718 2.548998 -15.690497 0.268235 1.754061 -17.387703 0.299976 1.852318 -18.396242 -0.000000 -0.000000 -0.000001 -0.878010 2.279284 5.040289 11.859723 25.426573 17.013950 -13.813335 3.536019 9.047630 -0.000002 0.000001 -0.000000 0.040043 -0.960640 -7.595018 0.267778 1.752583 -17.372569 0.057679 0.820915 -8.037637 -0.000001 0.000000 0.000000 0.139285 3.652928 -21.250102 0.386304 2.093954 -20.903121 0.282656 1.799431 -17.852711 -0.000001 0.000000 0.000004 0.911157 5.546327 -27.202555 0.268796 1.755849 -17.405962 0.241816 1.667387 -16.502637 -0.000002 0.000001 -0.000002 1.187784 15.381762 14.752391 13.268575 27.793920 58.482907 0.000013 6.357388 -0.000022 -20.197940 -0.724630 7.073956 -0.145276 -2.147108 14.740846 0.168969 -1.244389 15.464931 0.231884 -1.452651 18.137415 0.000004 0.000003 0.000003 -0.049266 3.874861 0.657941 10.047966 -26.698544 -21.020162 -12.646189 -22.225642 -16.027316 -0.000003 0.000001 -0.000002 0.150874 1.336302 6.882239 0.171346 -1.252922 15.574001 0.043701 -0.637186 7.846672 -0.000002 -0.000000 0.000000 0.072823 -3.194940 20.602530 0.314191 -1.683197 21.144920 0.230887 -1.449631 18.098391 -0.000002 -0.000000 0.000000 0.741673 -4.873692 27.186695 0.219944 -1.415693 17.660270 0.198204 -1.345562 16.758660 0.000002 0.000001 -0.000002 -13.162327 14.287441 11.276170 13.858046 2.945978 4.034271 2.080632 0.410481 -7.257924 -4.940031 -0.000006 -0.000003 -0.000000 -0.000001 0.000000 -0.363152 -10.382214 3.395384 6.434460 -7.635277 -3.536516 -1.632665 -2.785819 2.863097 -7.299794 0.000003 0.000001 -0.000000 0.000001 0.000000 
